<?xml version="1.0" standalone="no"?>
<!DOCTYPE svg PUBLIC "-//W3C//DTD SVG 20010904//EN"
 "http://www.w3.org/TR/2001/REC-SVG-20010904/DTD/svg10.dtd">
<svg version="1.0" xmlns="http://www.w3.org/2000/svg"
 width="512.000000pt" height="512.000000pt" viewBox="0 0 512.000000 512.000000"
 preserveAspectRatio="xMidYMid meet">
<metadata>
Created by potrace 1.14, written by Peter Selinger 2001-2017
</metadata>
<g transform="translate(0.000000,512.000000) scale(0.100000,-0.100000)"
fill="#000000" stroke="none">
<path d="M0 2560 l0 -2560 2560 0 2560 0 0 2560 0 2560 -2560 0 -2560 0 0
-2560z m2184 1698 c8 -14 7 -21 -6 -34 -30 -30 -75 9 -48 42 16 18 39 15 54
-8z m-859 -673 c0 -25 -4 -30 -24 -30 -32 0 -49 28 -31 50 7 9 23 15 34 13 16
-2 21 -10 21 -33z m1082 -262 c-3 -10 -5 -4 -5 12 0 17 2 24 5 18 2 -7 2 -21
0 -30z m1111 -6 c-2 -17 -10 -22 -33 -22 -35 0 -47 31 -20 51 25 18 57 0 53
-29z m-1858 -447 c0 -5 -4 -10 -10 -10 -5 0 -10 5 -10 10 0 6 5 10 10 10 6 0
10 -4 10 -10z m390 -158 c60 -61 44 -172 -28 -192 -52 -14 -79 -3 -106 42 -29
49 -22 105 20 149 37 38 76 39 114 1z m505 -326 c0 -52 -63 -62 -73 -12 -7 33
6 47 40 44 29 -3 33 -7 33 -32z m-1735 -476 c0 -25 -30 -41 -53 -29 -39 22 -4
79 35 58 10 -5 18 -18 18 -29z m1618 -963 c-4 -32 -54 -36 -63 -6 -5 16 -2 26
10 35 25 18 57 0 53 -29z"/>
</g>
</svg>
